<?xml version="1.0" encoding="utf-8"?>
<!-- Generator: Adobe Illustrator 21.1.0, SVG Export Plug-In . SVG Version: 6.00 Build 0)  -->
<svg version="1.1" id="Capa_1" xmlns="http://www.w3.org/2000/svg" xmlns:xlink="http://www.w3.org/1999/xlink" x="0px" y="0px"
	 viewBox="0 0 1560.8 512" style="enable-background:new 0 0 1560.8 512;" xml:space="preserve">
<style type="text/css">
	.st0{fill:#4482C3;}
	.st1{fill:#BDC3C7;}
	.st2{fill:#00FFFF;stroke:#00FFFF;stroke-miterlimit:10;}
	.st3{fill:#00FFFF;}
	.st4{fill:#FFFFFF;}
	.st5{enable-background:new    ;}
	.st6{fill:#F8F8F8;}
</style>
<g>
	<path class="st0" d="M8.5,145.1c-1.1,0-2.2-0.2-3.2-0.6c-4.4-1.8-6.4-6.8-4.7-11.1C23.7,77.1,68.7,28.9,124.1,1
		c4.2-2.1,9.3-0.4,11.5,3.8c2.1,4.2,0.4,9.3-3.8,11.5C80,42.3,38,87.4,16.4,139.9C15,143.1,11.8,145.1,8.5,145.1z"/>
	<path class="st0" d="M503.4,145.1c-3.4,0-6.5-2-7.9-5.3c-21.6-52.5-63.6-97.6-115.4-123.6c-4.2-2.1-5.9-7.2-3.8-11.5
		c2.1-4.2,7.2-5.9,11.5-3.8C443.2,28.7,488.2,77,511.3,133.3c1.8,4.4-0.3,9.3-4.7,11.1C505.6,144.9,504.5,145.1,503.4,145.1z"/>
	<path class="st0" d="M127.9,512c-1.3,0-2.6-0.3-3.8-0.9C68.7,483.3,23.7,435,0.6,378.7c-1.8-4.4,0.3-9.3,4.7-11.1
		c4.4-1.8,9.3,0.3,11.1,4.7C38,424.8,80,469.9,131.8,495.9c4.2,2.1,5.9,7.2,3.8,11.5C134.1,510.3,131.1,512,127.9,512z"/>
	<path class="st0" d="M383.9,512c-3.1,0-6.1-1.7-7.6-4.7c-2.1-4.2-0.4-9.3,3.8-11.5c51.8-26,93.8-71.1,115.4-123.6
		c1.8-4.4,6.8-6.4,11.1-4.7c4.4,1.8,6.4,6.8,4.7,11.1c-23.1,56.3-68.1,104.5-123.5,132.4C386.5,511.7,385.2,512,383.9,512z"/>
</g>
<g>
	<path class="st1" d="M93.8,264.5c-4.7,0-8.5-3.8-8.5-8.5c0-94.1,76.6-170.7,170.7-170.7c4.7,0,8.5,3.8,8.5,8.5s-3.8,8.5-8.5,8.5
		c-84.7,0-153.6,68.9-153.6,153.6C102.3,260.7,98.5,264.5,93.8,264.5z"/>
	<path class="st1" d="M255.9,426.7c-4.7,0-8.5-3.8-8.5-8.5s3.8-8.5,8.5-8.5c84.7,0,153.6-68.9,153.6-153.6c0-4.7,3.8-8.5,8.5-8.5
		s8.5,3.8,8.5,8.5C426.6,350.1,350,426.7,255.9,426.7z"/>
	<path class="st1" d="M145,264.5c-4.7,0-8.5-3.8-8.5-8.5c0-65.9,53.6-119.5,119.5-119.5c4.7,0,8.5,3.8,8.5,8.5s-3.8,8.5-8.5,8.5
		c-56.5,0-102.4,45.9-102.4,102.4C153.5,260.7,149.7,264.5,145,264.5z"/>
	<path class="st1" d="M255.9,375.5c-4.7,0-8.5-3.8-8.5-8.5s3.8-8.5,8.5-8.5c56.5,0,102.4-45.9,102.4-102.4c0-4.7,3.8-8.5,8.5-8.5
		s8.5,3.8,8.5,8.5C375.4,321.9,321.8,375.5,255.9,375.5z"/>
	<circle class="st2" cx="255.9" cy="256" r="59.7"/>
</g>
<circle class="st3" cx="255.9" cy="256" r="25.6"/>
<g>
	<path class="st4" d="M8.5,145.1c-1.1,0-2.2-0.2-3.2-0.6c-4.4-1.8-6.4-6.8-4.7-11.1C23.7,77.1,68.7,28.9,124.1,1
		c4.2-2.1,9.3-0.4,11.5,3.8c2.1,4.2,0.4,9.3-3.8,11.5C80,42.3,38,87.4,16.4,139.9C15,143.1,11.8,145.1,8.5,145.1z"/>
	<path class="st4" d="M503.4,145.1c-3.4,0-6.5-2-7.9-5.3c-21.6-52.5-63.6-97.6-115.4-123.6c-4.2-2.1-5.9-7.2-3.8-11.5
		c2.1-4.2,7.2-5.9,11.5-3.8C443.2,28.7,488.2,77,511.3,133.3c1.8,4.4-0.3,9.3-4.7,11.1C505.6,144.9,504.5,145.1,503.4,145.1z"/>
	<path class="st4" d="M127.9,512c-1.3,0-2.6-0.3-3.8-0.9C68.7,483.3,23.7,435,0.6,378.7c-1.8-4.4,0.3-9.4,4.7-11.1
		c4.3-1.8,9.3,0.3,11.1,4.7c21.5,52.6,63.6,97.6,115.4,123.6c4.2,2.1,5.9,7.2,3.8,11.5C134.1,510.3,131.1,512,127.9,512z"/>
	<path class="st4" d="M383.9,512c-3.1,0-6.1-1.7-7.6-4.7c-2.1-4.2-0.4-9.3,3.8-11.5c51.8-26,93.8-71.1,115.4-123.6
		c1.8-4.4,6.8-6.5,11.1-4.7c4.4,1.8,6.4,6.8,4.7,11.1c-23.1,56.3-68.1,104.5-123.5,132.4C386.5,511.7,385.2,512,383.9,512z"/>
	<path class="st4" d="M255.9,477.9C133.6,477.9,34,378.4,34,256c0-122.3,99.5-221.9,221.9-221.9S477.8,133.6,477.8,256
		C477.8,378.3,378.3,477.9,255.9,477.9z M255.9,51.2C143,51.2,51.1,143.1,51.1,256S143,460.8,255.9,460.8S460.7,368.9,460.7,256
		S368.9,51.2,255.9,51.2z"/>
	<path class="st4" d="M93.8,264.5c-4.7,0-8.5-3.8-8.5-8.5c0-94.1,76.6-170.7,170.7-170.7c4.7,0,8.5,3.8,8.5,8.5s-3.8,8.5-8.5,8.5
		c-84.7,0-153.6,68.9-153.6,153.6C102.3,260.7,98.5,264.5,93.8,264.5z"/>
	<path class="st4" d="M255.9,426.7c-4.7,0-8.5-3.8-8.5-8.5s3.8-8.5,8.5-8.5c84.7,0,153.6-68.9,153.6-153.6c0-4.7,3.8-8.5,8.5-8.5
		s8.5,3.8,8.5,8.5C426.6,350.1,350,426.7,255.9,426.7z"/>
	<path class="st4" d="M145,264.5c-4.7,0-8.5-3.8-8.5-8.5c0-65.9,53.6-119.5,119.5-119.5c4.7,0,8.5,3.8,8.5,8.5s-3.8,8.5-8.5,8.5
		c-56.5,0-102.4,45.9-102.4,102.4C153.5,260.7,149.7,264.5,145,264.5z"/>
	<path class="st4" d="M255.9,375.5c-4.7,0-8.5-3.8-8.5-8.5s3.8-8.5,8.5-8.5c56.5,0,102.4-45.9,102.4-102.4c0-4.7,3.8-8.5,8.5-8.5
		s8.5,3.8,8.5,8.5C375.4,321.9,321.8,375.5,255.9,375.5z"/>
	<path class="st2" d="M255.9,324.3c-37.6,0-68.3-30.6-68.3-68.3s30.6-68.3,68.3-68.3c37.6,0,68.3,30.6,68.3,68.3
		S293.6,324.3,255.9,324.3z M255.9,204.8c-28.2,0-51.2,23-51.2,51.2s23,51.2,51.2,51.2s51.2-23,51.2-51.2S284.2,204.8,255.9,204.8z"
		/>
	<path class="st3" d="M255.9,290.1c-18.8,0-34.1-15.3-34.1-34.1s15.3-34.1,34.1-34.1c18.8,0,34.1,15.3,34.1,34.1
		S274.8,290.1,255.9,290.1z M255.9,238.9c-9.4,0-17.1,7.7-17.1,17.1c0,9.4,7.7,17.1,17.1,17.1c9.4,0,17.1-7.7,17.1-17.1
		C273,246.6,265.3,238.9,255.9,238.9z"/>
</g>
<g class="st5">
	<path class="st6" d="M683.7,200l-51.9,140h-18.1L563,200h18.3l38.8,111c1.2,3.6,2.2,7.7,2.8,12.4h0.4c0.5-3.9,1.6-8.1,3.2-12.6
		L666.1,200H683.7z"/>
	<path class="st6" d="M707.9,214.7c-2.9,0-5.3-1-7.3-2.9c-2-2-3-4.4-3-7.4c0-3,1-5.5,3-7.5c2-2,4.5-3,7.3-3c2.9,0,5.4,1,7.5,3
		c2.1,2,3.1,4.5,3.1,7.5c0,2.9-1,5.3-3.1,7.3C713.3,213.7,710.8,214.7,707.9,214.7z M715.7,340.1h-16v-100h16V340.1z"/>
	<path class="st6" d="M831.5,340.1h-16v-17h-0.4c-7.4,12.9-18.9,19.3-34.4,19.3c-12.6,0-22.6-4.5-30.1-13.4
		c-7.5-9-11.3-21.1-11.3-36.6c0-16.5,4.2-29.8,12.5-39.7c8.3-10,19.4-14.9,33.3-14.9c13.7,0,23.7,5.4,30,16.2h0.4V192h16V340.1z
		 M815.5,294.8v-14.7c0-8.1-2.7-14.9-8-20.5c-5.3-5.6-12.1-8.4-20.3-8.4c-9.8,0-17.4,3.6-23,10.7c-5.6,7.2-8.4,17.1-8.4,29.7
		c0,11.5,2.7,20.6,8.1,27.3c5.4,6.7,12.6,10,21.6,10c8.9,0,16.2-3.2,21.7-9.7S815.5,304.7,815.5,294.8z"/>
	<path class="st6" d="M942.3,294.1h-70.6c0.3,11.1,3.3,19.7,9,25.8c5.7,6.1,13.6,9.1,23.6,9.1c11.3,0,21.6-3.7,31.1-11.1v15
		c-8.8,6.4-20.4,9.6-34.9,9.6c-14.1,0-25.2-4.5-33.3-13.6c-8.1-9.1-12.1-21.9-12.1-38.3c0-15.6,4.4-28.2,13.2-38
		c8.8-9.8,19.8-14.7,32.9-14.7s23.2,4.2,30.4,12.7c7.2,8.5,10.7,20.2,10.7,35.3V294.1z M925.9,280.5c-0.1-9.2-2.3-16.4-6.7-21.6
		c-4.4-5.1-10.5-7.7-18.3-7.7c-7.6,0-14,2.7-19.2,8.1c-5.3,5.4-8.5,12.5-9.8,21.2H925.9z"/>
	<path class="st6" d="M1006.3,342.4c-14.8,0-26.6-4.7-35.4-14c-8.8-9.3-13.2-21.7-13.2-37.2c0-16.8,4.6-29.9,13.8-39.4
		c9.2-9.4,21.6-14.2,37.2-14.2c14.9,0,26.5,4.6,34.9,13.8c8.4,9.2,12.5,21.9,12.5,38.2c0,16-4.5,28.7-13.5,38.3
		C1033.6,337.6,1021.5,342.4,1006.3,342.4z M1007.5,251.2c-10.3,0-18.4,3.5-24.4,10.5c-6,7-9,16.7-9,29c0,11.8,3,21.2,9.1,28
		s14.2,10.3,24.3,10.3c10.4,0,18.3-3.4,23.9-10.1c5.6-6.7,8.3-16.2,8.3-28.6c0-12.5-2.8-22.1-8.3-28.9
		C1025.8,254.6,1017.8,251.2,1007.5,251.2z"/>
</g>
<g class="st5">
	<path class="st3" d="M1224.6,340.1h-16.3v-93.9c0-7.4,0.5-16.5,1.4-27.2h-0.4c-1.6,6.3-3,10.8-4.2,13.6l-47.9,107.6h-8l-47.8-106.8
		c-1.4-3.1-2.8-7.9-4.2-14.4h-0.4c0.5,5.6,0.8,14.7,0.8,27.4v93.7h-15.8V200h21.7l43,97.7c3.3,7.5,5.5,13.1,6.4,16.8h0.6
		c2.8-7.7,5-13.4,6.7-17.2l43.8-97.3h20.5V340.1z"/>
	<path class="st3" d="M1273.7,325.6h-0.4v60.4h-16v-146h16v17.6h0.4c7.9-13.3,19.4-19.9,34.6-19.9c12.9,0,22.9,4.5,30.2,13.4
		c7.2,9,10.8,20.9,10.8,36c0,16.7-4.1,30.1-12.2,40.2c-8.1,10.1-19.3,15.1-33.4,15.1C1290.7,342.4,1280.7,336.8,1273.7,325.6z
		 M1273.3,285.3v14c0,8.3,2.7,15.3,8.1,21s12.2,8.6,20.5,8.6c9.7,0,17.3-3.7,22.8-11.1c5.5-7.4,8.3-17.7,8.3-31
		c0-11.1-2.6-19.9-7.7-26.2c-5.1-6.3-12.1-9.5-20.9-9.5c-9.3,0-16.8,3.2-22.5,9.7C1276.1,267.4,1273.3,275.5,1273.3,285.3z"/>
	<path class="st3" d="M1453.2,294.1h-70.6c0.3,11.1,3.3,19.7,9,25.8c5.7,6.1,13.6,9.1,23.6,9.1c11.3,0,21.6-3.7,31.1-11.1v15
		c-8.8,6.4-20.4,9.6-34.9,9.6c-14.1,0-25.2-4.5-33.3-13.6c-8.1-9.1-12.1-21.9-12.1-38.3c0-15.6,4.4-28.2,13.2-38
		c8.8-9.8,19.8-14.7,32.9-14.7s23.2,4.2,30.4,12.7c7.2,8.5,10.7,20.2,10.7,35.3V294.1z M1436.8,280.5c-0.1-9.2-2.3-16.4-6.7-21.6
		c-4.4-5.1-10.5-7.7-18.3-7.7c-7.6,0-14,2.7-19.2,8.1c-5.3,5.4-8.5,12.5-9.8,21.2H1436.8z"/>
	<path class="st3" d="M1560.8,332.1c0,36.7-17.6,55.1-52.7,55.1c-12.4,0-23.2-2.3-32.4-7v-16c11.3,6.3,22,9.4,32.2,9.4
		c24.6,0,36.9-13.1,36.9-39.3v-10.9h-0.4c-7.6,12.8-19.1,19.1-34.4,19.1c-12.4,0-22.4-4.4-30-13.3c-7.6-8.9-11.4-20.8-11.4-35.8
		c0-17,4.1-30.5,12.3-40.5c8.2-10,19.4-15,33.5-15c13.5,0,23.5,5.4,30,16.2h0.4v-13.9h16V332.1z M1544.8,294.8v-14.7
		c0-7.9-2.7-14.7-8.1-20.4c-5.4-5.7-12.1-8.5-20.1-8.5c-9.9,0-17.6,3.6-23.2,10.8c-5.6,7.2-8.4,17.3-8.4,30.2
		c0,11.1,2.7,20,8.1,26.7c5.4,6.7,12.5,10,21.3,10c9,0,16.3-3.2,21.9-9.6C1542,313,1544.8,304.8,1544.8,294.8z"/>
</g>
</svg>
